#N canvas 7 68 1366 685 12;
#X obj 462 252 + 0;
#X obj 519 252 + 0;
#X obj 582 252 + 0;
#X obj 645 252 + 0;
#X obj 877 339 s~ \$0-fb;
#X obj 877 315 line~;
#X obj 236 312 r \$0-drywet;
#X obj 218 472 *~;
#X obj 236 390 line~;
#X msg 236 366 \$1 5;
#X msg 179 371 1;
#X obj 179 395 -, f 5;
#X obj 179 347 t b f;
#X obj 179 443 line~;
#X obj 14 482 *~;
#X obj 708 252 + 0;
#X msg 179 419 \$1 5;
#X obj 771 252 + 0;
#X obj 386 334 tape~ \$0 0 60;
#X obj 519 334 tape~ \$0 1 72;
#X obj 635 388 tape~ \$0 2 86;
#X obj 769 388 tape~ \$0 3 102;
#X obj 902 388 tape~ \$0 4 124;
#X obj 1036 388 tape~ \$0 5 148;
#X obj 368 388 +~;
#X obj 501 388 +~;
#X obj 1009 573 *~;
#X obj 1027 544 r~ \$0-fb;
#X obj 1009 597 hip~, f 5;
#X obj 1009 621 lop~, f 7;
#X obj 1041 573 r \$0-hip;
#X obj 1055 597 r \$0-lop;
#X obj 1170 573 *~;
#X obj 1188 544 r~ \$0-fb;
#X obj 1170 597 hip~, f 5;
#X obj 1170 621 lop~, f 7;
#X obj 1202 573 r \$0-hip;
#X obj 1216 597 r \$0-lop;
#X obj 688 573 *~;
#X obj 706 544 r~ \$0-fb;
#X obj 688 597 hip~, f 5;
#X obj 688 621 lop~, f 7;
#X obj 720 573 r \$0-hip;
#X obj 734 597 r \$0-lop;
#X obj 849 573 *~;
#X obj 867 544 r~ \$0-fb;
#X obj 849 597 hip~, f 5;
#X obj 849 621 lop~, f 7;
#X obj 881 573 r \$0-hip;
#X obj 895 597 r \$0-lop;
#X obj 368 573 *~;
#X obj 386 543 r~ \$0-fb;
#X obj 368 597 hip~, f 5;
#X obj 368 621 lop~, f 7;
#X obj 400 573 r \$0-hip;
#X obj 414 597 r \$0-lop;
#X obj 528 573 *~;
#X obj 546 544 r~ \$0-fb;
#X obj 528 597 hip~, f 5;
#X obj 528 621 lop~, f 7;
#X obj 560 573 r \$0-hip;
#X obj 574 597 r \$0-lop;
#X obj 368 655 delwrite~ \$0-del0 300;
#X obj 528 655 delwrite~ \$0-del1 360;
#X obj 688 655 delwrite~ \$0-del2 430;
#X obj 849 655 delwrite~ \$0-del3 510;
#X obj 1009 655 delwrite~ \$0-del4 620;
#X obj 1170 655 delwrite~ \$0-del5 740;
#X obj 877 268 * 0.5;
#X obj 462 228 * 30.23;
#X obj 519 228 * 40.47;
#X obj 582 228 * 50.55;
#X obj 645 228 * 70.66;
#X obj 708 228 * 90.72;
#X obj 771 228 * 110.99;
#X msg 476 121 0.2;
#X msg 526 121 0.6;
#X msg 501 121 0.4;
#X msg 551 121 1;
#X msg 576 121 4;
#X obj 403 388 s~ \$0-wetL;
#X obj 228 414 r~ \$0-wetL;
#X obj 536 388 s~ \$0-wetR;
#X obj 263 443 r~ \$0-wetR;
#X obj 253 472 *~;
#X obj 476 160 s \$0-size;
#X obj 24 364 *~;
#X obj 98 335 line~;
#X msg 130 306 1 \, 0 10;
#X msg 98 282 0 \, 1 10;
#X obj 1258 70 sel 0;
#X msg 1329 99 1;
#X obj 877 95 f;
#X obj 1178 257 s \$0-lop;
#X obj 1178 233 line;
#X msg 1178 209 \$1 10;
#X obj 1178 180 f;
#X msg 1290 99 10000;
#X obj 1258 233 line;
#X msg 1258 209 \$1 10;
#X obj 1258 180 f;
#X obj 1258 257 s \$0-hip;
#X obj 1258 47 r \$0-freeze;
#X obj 98 258 sel 0;
#X obj 98 234 r \$0-freeze;
#X obj 940 66 sel 0;
#X obj 940 42 r \$0-freeze;
#X msg 972 95 1;
#X obj 1206 334 t b f;
#X msg 1206 358 1;
#X obj 1206 382 -, f 5;
#X obj 1027 515 *~;
#X obj 1027 486 +~;
#X obj 867 515 *~;
#X obj 867 486 +~;
#X obj 706 515 *~;
#X obj 706 486 +~;
#X obj 546 515 *~;
#X obj 386 515 *~;
#X obj 1188 515 *~;
#X obj 1188 486 +~;
#X obj 354 158 t b f;
#X msg 354 182 1;
#X obj 354 206 -, f 5;
#X obj 218 283 *~, f 17;
#X obj 403 363 *~;
#X obj 536 363 *~;
#X obj 887 191 sel 0 1;
#X msg 887 215 1;
#X msg 912 215 0.5;
#X obj 887 239 t b f;
#X msg 354 230 \$1 10;
#X obj 354 254 line~;
#X msg 684 310 \$1 10;
#X obj 684 334 line~;
#X msg 1206 406 \$1 10;
#X obj 1206 430 line~;
#X msg 877 291 \$1 10;
#X obj 368 306 r~ \$0-inputL;
#X obj 706 457 r~ \$0-inputL;
#X obj 1027 457 r~ \$0-inputL;
#X obj 1188 457 r~ \$0-inputR;
#X obj 866 457 r~ \$0-inputR;
#X obj 501 306 r~ \$0-inputR;
#X obj 14 205 inlet~;
#X obj 24 389 s~ \$0-inputL;
#X obj 80 418 *~;
#X obj 70 205 inlet~;
#X obj 80 443 s~ \$0-inputR;
#X obj 70 482 *~, f 16;
#X obj 14 521 +~;
#X obj 70 521 +~;
#X obj 14 545 outlet~;
#X obj 70 545 outlet~;
#X obj 1268 151 r \$0-hipCtl;
#X obj 1178 151 r \$0-lopCtl;
#X obj 476 68 r \$0-room;
#X obj 476 92 sel 0 1 2 3 4;
#X obj 877 56 r \$0-fb;
#X obj 607 50 r \$0-lopCtl;
#X obj 607 98 s \$0-lopCtl-r;
#X msg 607 74 label lop:\\\ \$1Hz;
#X obj 732 50 r \$0-hipCtl;
#X msg 732 74 label hip:\\\ \$1Hz;
#X obj 732 98 s \$0-hipCtl-r;
#X obj 31 33 cnv 15 203 91 empty empty empty 20 12 0 14 #ffffff #404040
0;
#X obj 36 52 vsl 10 64 0.5 1 0 0 \$0-fb \$0-fb-r feedback 0 -10 0 10
#000000 #ffffff #000000 0 1;
#X obj 99 85 hsl 128 10 2000 10000 1 0 \$0-lopCtl \$0-lopCtl-r lop:\ 2000Hz
-2 -8 0 10 #000000 #ffffff #000000 0 1;
#X obj 99 58 hsl 128 10 100 5000 1 0 \$0-hipCtl \$0-hipCtl-r hip:\ 100Hz
-2 -8 0 10 #000000 #ffffff #000000 0 1;
#X obj 86 102 tgl 10 0 \$0-freeze \$0-freeze-r freeze 15 4 0 10 #fcfcfc
#000000 #000000 0 1;
#X obj 146 102 tgl 10 0 \$0-recirculate \$0-recirculate-r recirculate
15 4 0 10 #fcfcfc #000000 #000000 0 1;
#X obj 51 62 vsl 10 54 0 1 0 0 \$0-drywet \$0-drywet-r drywet 0 -10
0 10 #000000 #ffffff #000000 0 1;
#X obj 66 69 vradio 10 1 0 5 \$0-room \$0-room-r room 0 -8 0 10 #fcfcfc
#000000 #000000 0;
#X obj 1043 22 inlet;
#N canvas 425 129 722 412 route-inlet-messages 0;
#X obj 12 12 inlet;
#X msg 22 65 set \$1;
#X obj 22 89 s \$0-fb-r;
#X obj 12 113 s \$0-fb;
#X msg 73 166 set \$1;
#X obj 73 190 s \$0-drywet-r;
#X obj 63 214 s \$0-drywet;
#X msg 124 89 set \$1;
#X obj 114 65 clip 0 4;
#X obj 124 113 s \$0-room-r;
#X obj 114 137 s \$0-room;
#X msg 175 166 set \$1;
#X msg 227 65 set \$1;
#X msg 278 166 set \$1;
#X obj 268 142 != 0;
#X msg 329 89 set \$1;
#X obj 319 65 != 0;
#X obj 329 113 s \$0-freeze-r;
#X obj 319 137 s \$0-freeze;
#X msg 422 292 se ha recibido un mensaje desconocido;
#X obj 422 316 print rev90~;
#N canvas 446 54 450 602 state 0;
#X obj 27 26 inlet;
#X obj 27 103 f;
#X obj 27 297 pack f f f f f f f;
#X obj 47 132 r \$0-drywet;
#X obj 68 156 r \$0-room;
#X obj 88 180 r \$0-lop;
#X obj 109 204 r \$0-hip;
#X obj 129 228 r \$0-freeze;
#X obj 150 252 r \$0-recirculate;
#X obj 27 50 t b b;
#X msg 59 383 set;
#X obj 27 412 s \$0-state;
#X msg 27 326 add2 feedback \$1 \, addcomma \, add2 drywet \$2 \, addcomma
\, add2 room \$3 \, addcomma \, add2 lop \$4 \, addcomma \, add2 hip
\$5 \, addcomma \, add2 freeze \$6 \, addcomma \, add2 recirculate
\$7;
#X obj 45 79 r \$0-fb;
#X connect 0 0 9 0;
#X connect 1 0 2 0;
#X connect 2 0 12 0;
#X connect 3 0 2 1;
#X connect 4 0 2 2;
#X connect 5 0 2 3;
#X connect 6 0 2 4;
#X connect 7 0 2 5;
#X connect 8 0 2 6;
#X connect 9 0 1 0;
#X connect 9 1 10 0;
#X connect 10 0 11 0;
#X connect 12 0 11 0;
#X connect 13 0 1 1;
#X restore 370 253 pd state;
#X obj 12 36 route feedback drywet room lop hip recirculate freeze
state;
#X obj 278 190 s \$0-recirculate-r;
#X obj 268 214 s \$0-recirculate;
#X obj 439 12 loadbang;
#X msg 439 36 0;
#X msg 464 36 100;
#X msg 489 36 2000;
#X obj 227 89 s \$0-hipCtl-r;
#X obj 217 113 s \$0-hipCtl;
#X obj 175 190 s \$0-lopCtl-r;
#X obj 165 214 s \$0-lopCtl;
#X connect 0 0 22 0;
#X connect 1 0 2 0;
#X connect 4 0 5 0;
#X connect 7 0 9 0;
#X connect 8 0 7 0;
#X connect 8 0 10 0;
#X connect 11 0 31 0;
#X connect 12 0 29 0;
#X connect 13 0 23 0;
#X connect 14 0 13 0;
#X connect 14 0 24 0;
#X connect 15 0 17 0;
#X connect 16 0 15 0;
#X connect 16 0 18 0;
#X connect 19 0 20 0;
#X connect 22 0 1 0;
#X connect 22 0 3 0;
#X connect 22 1 4 0;
#X connect 22 1 6 0;
#X connect 22 2 8 0;
#X connect 22 3 11 0;
#X connect 22 3 32 0;
#X connect 22 4 12 0;
#X connect 22 4 30 0;
#X connect 22 5 14 0;
#X connect 22 6 16 0;
#X connect 22 7 21 0;
#X connect 22 8 19 0;
#X connect 25 0 26 0;
#X connect 25 0 27 0;
#X connect 25 0 28 0;
#X connect 26 0 2 0;
#X connect 26 0 9 0;
#X connect 26 0 5 0;
#X connect 26 0 17 0;
#X connect 26 0 23 0;
#X connect 27 0 29 0;
#X connect 28 0 31 0;
#X restore 1043 46 pd route-inlet-messages;
#X obj 877 119 * 0.3;
#X obj 877 143 + 0.7;
#X obj 354 134 r \$0-recirculate;
#X obj 684 286 r \$0-recirculate;
#X obj 1170 305 r \$0-recirculate;
#N canvas 854 6 1366 685 recirculate 0;
#X obj 2 14 inlet~;
#X obj 82 14 inlet~;
#X obj 2 68 +~;
#X obj 64 68 -~;
#X obj 142 14 inlet~;
#X obj 222 14 inlet~;
#X obj 142 68 +~;
#X obj 204 68 -~;
#X obj 282 14 inlet~;
#X obj 362 14 inlet~;
#X obj 282 68 +~;
#X obj 344 68 -~;
#X obj 2 148 +~;
#X obj 64 148 -~;
#X obj 142 148 +~;
#X obj 204 148 -~;
#X obj 282 148 +~;
#X obj 344 148 -~;
#X obj 2 172 outlet~;
#X obj 64 171 outlet~;
#X obj 142 172 outlet~;
#X obj 204 172 outlet~;
#X obj 282 172 outlet~;
#X obj 344 172 outlet~;
#X text 115 282 [1 2] [3 4] [5 6] \; [1 4] [3 5] [6 2] \; matriz;
#X obj 448 14 inlet;
#X obj 448 38 switch~;
#X connect 0 0 2 0;
#X connect 0 0 3 0;
#X connect 1 0 3 1;
#X connect 1 0 2 1;
#X connect 2 0 12 0;
#X connect 2 0 13 0;
#X connect 3 0 16 1;
#X connect 3 0 17 1;
#X connect 4 0 6 0;
#X connect 4 0 7 0;
#X connect 5 0 7 1;
#X connect 5 0 6 1;
#X connect 6 0 14 0;
#X connect 6 0 15 0;
#X connect 7 0 12 1;
#X connect 7 0 13 1;
#X connect 8 0 10 0;
#X connect 8 0 11 0;
#X connect 9 0 11 1;
#X connect 9 0 10 1;
#X connect 10 0 14 1;
#X connect 10 0 15 1;
#X connect 11 0 17 0;
#X connect 11 0 16 0;
#X connect 12 0 18 0;
#X connect 13 0 19 0;
#X connect 14 0 20 0;
#X connect 15 0 21 0;
#X connect 16 0 22 0;
#X connect 17 0 23 0;
#X connect 25 0 26 0;
#X restore 368 417 pd recirculate;
#X f 115;
#X obj 887 167 r \$0-recirculate;
#X obj 143 521 r \$0-state;
#X obj 143 545 outlet;
#X msg 757 359 clear;
#X obj 618 191 r \$0-size;
#X obj 520 189 t f b;
#X obj 185 38 bng 10 250 50 0 \$0-clear \$0-clear-r clear 15 4 0 10
#fcfcfc #000000 #000000;
#X obj 757 335 r \$0-clear;
#X obj 416 486 s~ \$0-simpleMixL;
#X obj 546 486 s~ \$0-simpleMixR;
#X obj 416 462 *~ 0.66;
#X obj 546 462 *~ 0.66;
#X obj 218 204 r~ \$0-simpleMixL;
#X obj 228 234 r~ \$0-simpleMixR;
#X obj 228 258 *~;
#X connect 0 0 18 0;
#X connect 1 0 19 0;
#X connect 2 0 20 0;
#X connect 3 0 21 0;
#X connect 5 0 4 0;
#X connect 6 0 9 0;
#X connect 6 0 12 0;
#X connect 7 0 150 1;
#X connect 8 0 7 1;
#X connect 8 0 84 1;
#X connect 9 0 8 0;
#X connect 10 0 11 0;
#X connect 11 0 16 0;
#X connect 12 0 10 0;
#X connect 12 1 11 1;
#X connect 13 0 14 1;
#X connect 13 0 149 1;
#X connect 14 0 150 0;
#X connect 15 0 22 0;
#X connect 16 0 13 0;
#X connect 17 0 23 0;
#X connect 18 0 24 1;
#X connect 18 0 125 0;
#X connect 18 0 191 0;
#X connect 19 0 25 1;
#X connect 19 0 126 0;
#X connect 19 0 192 0;
#X connect 20 0 180 2;
#X connect 20 0 116 1;
#X connect 20 0 191 0;
#X connect 21 0 180 3;
#X connect 21 0 114 1;
#X connect 21 0 192 0;
#X connect 22 0 180 4;
#X connect 22 0 112 1;
#X connect 22 0 191 0;
#X connect 23 0 180 5;
#X connect 23 0 120 1;
#X connect 23 0 192 0;
#X connect 24 0 180 0;
#X connect 24 0 118 0;
#X connect 25 0 180 1;
#X connect 25 0 117 0;
#X connect 26 0 28 0;
#X connect 27 0 26 1;
#X connect 28 0 29 0;
#X connect 29 0 66 0;
#X connect 30 0 28 1;
#X connect 31 0 29 1;
#X connect 32 0 34 0;
#X connect 33 0 32 1;
#X connect 34 0 35 0;
#X connect 35 0 67 0;
#X connect 36 0 34 1;
#X connect 37 0 35 1;
#X connect 38 0 40 0;
#X connect 39 0 38 1;
#X connect 40 0 41 0;
#X connect 41 0 64 0;
#X connect 42 0 40 1;
#X connect 43 0 41 1;
#X connect 44 0 46 0;
#X connect 45 0 44 1;
#X connect 46 0 47 0;
#X connect 47 0 65 0;
#X connect 48 0 46 1;
#X connect 49 0 47 1;
#X connect 50 0 52 0;
#X connect 51 0 50 1;
#X connect 52 0 53 0;
#X connect 53 0 62 0;
#X connect 54 0 52 1;
#X connect 55 0 53 1;
#X connect 56 0 58 0;
#X connect 57 0 56 1;
#X connect 58 0 59 0;
#X connect 59 0 63 0;
#X connect 60 0 58 1;
#X connect 61 0 59 1;
#X connect 68 0 137 0;
#X connect 69 0 0 0;
#X connect 70 0 1 0;
#X connect 71 0 2 0;
#X connect 72 0 3 0;
#X connect 73 0 15 0;
#X connect 74 0 17 0;
#X connect 75 0 85 0;
#X connect 76 0 85 0;
#X connect 77 0 85 0;
#X connect 78 0 85 0;
#X connect 79 0 85 0;
#X connect 81 0 7 0;
#X connect 83 0 84 0;
#X connect 84 0 151 1;
#X connect 86 0 145 0;
#X connect 87 0 86 1;
#X connect 87 0 146 1;
#X connect 88 0 87 0;
#X connect 89 0 87 0;
#X connect 90 0 96 0;
#X connect 90 0 100 0;
#X connect 90 1 91 0;
#X connect 90 1 97 0;
#X connect 91 0 99 0;
#X connect 92 0 175 0;
#X connect 94 0 93 0;
#X connect 95 0 94 0;
#X connect 96 0 95 0;
#X connect 97 0 95 0;
#X connect 98 0 101 0;
#X connect 99 0 98 0;
#X connect 100 0 99 0;
#X connect 102 0 90 0;
#X connect 103 0 89 0;
#X connect 103 1 88 0;
#X connect 104 0 103 0;
#X connect 105 0 92 0;
#X connect 105 1 107 0;
#X connect 106 0 105 0;
#X connect 107 0 68 0;
#X connect 108 0 109 0;
#X connect 108 1 110 1;
#X connect 109 0 110 0;
#X connect 110 0 135 0;
#X connect 111 0 26 0;
#X connect 112 0 111 0;
#X connect 113 0 44 0;
#X connect 114 0 113 0;
#X connect 115 0 38 0;
#X connect 116 0 115 0;
#X connect 117 0 56 0;
#X connect 118 0 50 0;
#X connect 119 0 32 0;
#X connect 120 0 119 0;
#X connect 121 0 122 0;
#X connect 121 1 123 1;
#X connect 122 0 123 0;
#X connect 123 0 131 0;
#X connect 124 0 7 0;
#X connect 125 0 80 0;
#X connect 126 0 82 0;
#X connect 127 0 128 0;
#X connect 127 1 129 0;
#X connect 128 0 130 0;
#X connect 129 0 130 0;
#X connect 130 0 68 0;
#X connect 130 1 68 1;
#X connect 131 0 132 0;
#X connect 132 0 124 1;
#X connect 132 0 195 1;
#X connect 133 0 134 0;
#X connect 134 0 126 1;
#X connect 134 0 125 1;
#X connect 135 0 136 0;
#X connect 136 0 119 1;
#X connect 136 0 118 1;
#X connect 136 0 117 1;
#X connect 136 0 115 1;
#X connect 136 0 113 1;
#X connect 136 0 111 1;
#X connect 137 0 5 0;
#X connect 138 0 24 0;
#X connect 139 0 116 0;
#X connect 140 0 112 0;
#X connect 141 0 120 0;
#X connect 142 0 114 0;
#X connect 143 0 25 0;
#X connect 144 0 14 0;
#X connect 144 0 86 0;
#X connect 146 0 148 0;
#X connect 147 0 146 0;
#X connect 147 0 149 0;
#X connect 149 0 151 0;
#X connect 150 0 152 0;
#X connect 151 0 153 0;
#X connect 154 0 100 0;
#X connect 155 0 96 0;
#X connect 156 0 157 0;
#X connect 157 0 75 0;
#X connect 157 1 77 0;
#X connect 157 2 76 0;
#X connect 157 3 78 0;
#X connect 157 4 79 0;
#X connect 158 0 92 0;
#X connect 159 0 161 0;
#X connect 161 0 160 0;
#X connect 162 0 163 0;
#X connect 163 0 164 0;
#X connect 173 0 174 0;
#X connect 175 0 176 0;
#X connect 176 0 68 0;
#X connect 177 0 121 0;
#X connect 178 0 133 0;
#X connect 179 0 108 0;
#X connect 179 0 180 6;
#X connect 180 0 50 0;
#X connect 180 1 56 0;
#X connect 180 2 38 0;
#X connect 180 3 44 0;
#X connect 180 4 26 0;
#X connect 180 5 32 0;
#X connect 181 0 127 0;
#X connect 182 0 183 0;
#X connect 184 0 62 0;
#X connect 184 0 63 0;
#X connect 184 0 64 0;
#X connect 184 0 65 0;
#X connect 184 0 66 0;
#X connect 184 0 67 0;
#X connect 185 0 186 0;
#X connect 186 0 69 0;
#X connect 186 0 74 0;
#X connect 186 0 73 0;
#X connect 186 0 72 0;
#X connect 186 0 71 0;
#X connect 186 0 70 0;
#X connect 188 0 184 0;
#X connect 191 0 189 0;
#X connect 192 0 190 0;
#X connect 193 0 124 0;
#X connect 194 0 195 0;
#X connect 195 0 84 0;
#X coords 0 -1 1 1 205 97 2 30 30;
