#N canvas -22 36 1366 685 12;
#X obj 141 302 line~;
#X obj 141 254 inlet;
#X obj 141 333 delread4~ \$1-del\$2;
#X obj 142 469 outlet~;
#X msg 141 278 \$1 5;
#X connect 0 0 2 0;
#X connect 1 0 4 0;
#X connect 2 0 3 0;
#X connect 4 0 0 0;
